<svg xmlns:xlink="http://www.w3.org/1999/xlink" xmlns="http://www.w3.org/2000/svg" width="30" height="30" viewBox="0 0 30 30">
    <path fill="#FFF" fill-rule="nonzero" d="M14.95 10.6a4.443 4.443 0 0 0-4.45 4.45 4.443 4.443 0 0 0 4.45 4.45 4.443 4.443 0 0 0 4.45-4.45 4.443 4.443 0 0 0-4.45-4.45zM15 18c-1.596 0-2.9-1.3-2.9-2.9 0-1.6 1.3-2.9 2.9-2.9 1.6 0 2.9 1.3 2.9 2.9 0 1.6-1.304 2.9-2.9 2.9zm5.6-7.55c0 .584-.47 1.05-1.05 1.05a1.05 1.05 0 1 1 1.05-1.05zm2.94 1.033c-.066-1.386-.383-2.613-1.398-3.625-1.011-1.011-2.238-1.328-3.624-1.397-1.428-.081-5.708-.081-7.136 0-1.382.065-2.61.382-3.624 1.393-1.015 1.012-1.328 2.24-1.397 3.625-.081 1.429-.081 5.71 0 7.138.065 1.386.382 2.613 1.397 3.625 1.015 1.011 2.238 1.328 3.624 1.397 1.428.081 5.708.081 7.136 0 1.386-.065 2.613-.382 3.624-1.397 1.011-1.012 1.328-2.24 1.397-3.625.081-1.428.081-5.706 0-7.134zm-1.798 8.715a2.919 2.919 0 0 1-1.644 1.644c-1.138.452-3.84.348-5.098.348s-3.964.1-5.098-.348a2.919 2.919 0 0 1-1.644-1.644c-.452-1.138-.348-3.84-.348-5.098s-.1-3.964.348-5.098a2.919 2.919 0 0 1 1.644-1.644c1.138-.452 3.84-.348 5.098-.348s3.964-.1 5.098.348c.757.3 1.34.884 1.644 1.644.452 1.138.348 3.84.348 5.098s.104 3.964-.348 5.098z"/>
</svg>
