<svg xmlns:xlink="http://www.w3.org/1999/xlink" xmlns="http://www.w3.org/2000/svg" width="30" height="30" viewBox="0 0 30 30">
    <path fill="#FFF" fill-rule="nonzero" d="M22.364 6.4c.68 0 1.236.56 1.236 1.247v14.806c0 .687-.556 1.247-1.236 1.247H7.532c-.68 0-1.232-.56-1.232-1.247V7.647c0-.687.552-1.247 1.232-1.247zM11.5 13H8.9v8.3h2.6V13zm6.523-.3c-1.247 0-2.085.687-2.429 1.338h-.035v-1.132H13.1V21.2h2.564v-4.105c0-1.082.204-2.13 1.54-2.13 1.313 0 1.332 1.238 1.332 2.2V21.2H21.1v-4.547c0-2.234-.483-3.953-3.077-3.953zM10.2 8.9a1.5 1.5 0 1 0 .001 3.001A1.5 1.5 0 0 0 10.2 8.9z"/>
</svg>
