<svg xmlns:xlink="http://www.w3.org/1999/xlink" xmlns="http://www.w3.org/2000/svg" width="30" height="30" viewBox="0 0 30 30">
    <path fill="#FFF" fill-rule="evenodd" d="M21.822 11.564c.01.152.01.304.01.456 0 4.637-3.567 9.98-10.087 9.98-2.01 0-3.875-.576-5.445-1.575.285.033.56.044.856.044a7.15 7.15 0 0 0 4.402-1.499 3.547 3.547 0 0 1-3.315-2.432c.22.032.439.054.67.054.318 0 .636-.043.933-.12-1.625-.325-2.843-1.737-2.843-3.442v-.043a3.6 3.6 0 0 0 1.602.445 3.495 3.495 0 0 1-1.58-2.921c0-.652.175-1.25.482-1.77a10.115 10.115 0 0 0 7.311 3.67 3.919 3.919 0 0 1-.088-.803c0-1.933 1.581-3.508 3.546-3.508 1.02 0 1.943.424 2.59 1.108a7.027 7.027 0 0 0 2.251-.847 3.505 3.505 0 0 1-1.559 1.933A7.169 7.169 0 0 0 23.6 9.75a7.578 7.578 0 0 1-1.778 1.813z"/>
</svg>
