<svg xmlns:xlink="http://www.w3.org/1999/xlink" xmlns="http://www.w3.org/2000/svg" width="30" height="30" viewBox="0 0 30 30">
    <path fill="#FFF" fill-rule="nonzero" d="M23.792 11.011c-.079 1.71-1.273 4.053-3.59 7.028-2.393 3.107-4.416 4.661-6.074 4.661-1.026 0-1.894-.946-2.605-2.837-1.383-5.07-1.972-8.04-3.115-8.04-.134 0-.593.279-1.383.828L6.2 11.584c2.027-1.778 3.964-3.755 5.178-3.865 1.37-.133 2.211.804 2.53 2.805 1.127 7.122 1.626 8.197 3.677 4.972.734-1.162 1.131-2.044 1.186-2.653.189-1.8-1.406-1.679-2.487-1.216.865-2.829 2.519-4.202 4.958-4.124 1.8.047 2.652 1.22 2.55 3.508z"/>
</svg>
